<svg id="Layer_1" xmlns="http://www.w3.org/2000/svg" viewBox="0 0 216 216"><style>.st0{fill:#254d7c}.st1{fill:#fff}</style><circle class="st0" cx="108" cy="107.7" r="89.9"/><path class="st1" d="M56.6 114.6l12.8 4.8c1 .4 1.5 1.1 1.5 2.2 0 1.5-.8 2.3-2.3 2.3-.3 0-.6 0-.8-.1l-18.6-7c-1-.4-1.5-1.1-1.5-2.2s.5-1.8 1.5-2.2l18.6-7c.3-.1.5-.1.8-.1 1.5 0 2.3.8 2.3 2.3 0 1.1-.5 1.8-1.5 2.2l-12.8 4.8zm35.2-6.9h-4.6c-1.5 0-2.3-.8-2.3-2.3s.8-2.3 2.3-2.3h4.6c1.9 0 3.6-.7 4.9-2 1.3-1.3 2-3 2-4.9 0-1.9-.7-3.6-2-4.9-1.4-1.4-3-2-4.9-2h-9.3c-1.5 0-2.3-.8-2.3-2.3s.8-2.3 2.3-2.3h9.3c3.2 0 5.9 1.1 8.2 3.4 2.3 2.3 3.4 5 3.4 8.2 0 3.8-1.5 6.9-4.6 9.3 3.1 2.3 4.6 5.4 4.6 9.3v4.6c0 3.2-1.1 5.9-3.4 8.2-2.3 2.3-5 3.4-8.2 3.4h-9.3c-1.5 0-2.3-.8-2.3-2.3 0-1.5.8-2.3 2.3-2.3h9.3c1.9 0 3.6-.7 4.9-2 1.3-1.3 2-3 2-4.9V115c0-1.9-.7-3.6-2-4.9-1.4-1.8-3-2.4-4.9-2.4zm20.8 0c0-1.7.4-3.2 1.2-4.7 1.8-3.1 4.4-4.6 8.1-4.6h9.3V86.8c0-1.5.8-2.3 2.3-2.3s2.3.8 2.3 2.3v41.8c0 1.5-.8 2.3-2.3 2.3h-11.6c-2.6 0-4.8-.9-6.6-2.7-1.8-1.8-2.7-4-2.7-6.6v-13.9zm9.3-4.7c-1.3 0-2.4.5-3.3 1.4-.9.9-1.4 2-1.4 3.3v13.9c0 1.3.5 2.4 1.4 3.3s2 1.4 3.3 1.4h9.3V103h-9.3zm37.5 11.6l-12.8-4.8c-1-.4-1.5-1.1-1.5-2.2 0-1.5.8-2.3 2.3-2.3.3 0 .5 0 .8.1l18.6 7c1 .4 1.5 1.1 1.5 2.2s-.5 1.8-1.5 2.2l-18.6 7c-.3.1-.5.1-.8.1-.6 0-1.2-.2-1.6-.7s-.7-1-.7-1.6c0-1.1.5-1.8 1.5-2.2l12.8-4.8z"/></svg>