<svg id="Layer_1" xmlns="http://www.w3.org/2000/svg" viewBox="0 0 216 216"><style>.st0{fill:#254d7c}.st1{fill:#fff}.st2{fill:url(#SVGID_1_)}.st3{fill:url(#SVGID_2_)}</style><circle class="st0" cx="116.5" cy="111.3" r="89.9"/><path class="st1" d="M175.3 166.9h-31.7l-35-81.9-22.7 53.4 45.4-.2s-29.1 19.6-40.6 25.4c-11.6 5.8-14.9 2.6-16.8.5-1.9-2.1-12.7-23-14.3-26.3-1.6-3.3-2.9-3.4 0-11.4 2.9-8.1 27.1-65.1 28.5-67.6 1.3-2.5 2.6-3.1 7.7-3.1H124c2.9 0 4.6 1 6 4 1.3 3 45.3 107.2 45.3 107.2z"/><linearGradient id="SVGID_1_" gradientUnits="userSpaceOnUse" x1="121.134" y1="74.075" x2="80.134" y2="161.075"><stop offset="0" stop-color="#999b9e"/><stop offset="1" stop-color="#fff"/></linearGradient><path class="st2" d="M108.5 85l-22.7 53.4 45.4-.2s-29.1 19.6-40.6 25.4c-11.6 5.8-14.9 2.6-16.8.5-1.9-2.1-12.7-23-14.3-26.3-1.6-3.3-2.9-3.4 0-11.4 2.9-8.1 27.1-65.1 28.5-67.6 1.3-2.5 2.6-3.1 7.7-3.1h.4L108.5 85z"/><path class="st1" d="M85.8 138.4l45.4-.2s-29.1 19.6-40.6 25.4c-11.6 5.8-14.9 2.6-16.8.5-1.9-2.1-12.7-23-14.3-26.3l26.3.6z"/><linearGradient id="SVGID_2_" gradientUnits="userSpaceOnUse" x1="87.705" y1="126.367" x2="76.394" y2="150.368"><stop offset="0" stop-color="#999b9e"/><stop offset="1" stop-color="#fff"/></linearGradient><path class="st3" d="M116.8 138.3l-57 .2H47.3"/></svg>