<svg id="Layer_1" xmlns="http://www.w3.org/2000/svg" viewBox="0 0 216 216"><style>.st0{fill:#254d7c}.st1{fill:#fff}</style><circle class="st0" cx="108" cy="108" r="89.9"/><path class="st1" d="M43.7 122.4v2.1c0 1.4-.7 2.1-2.1 2.1s-2.1-.7-2.1-2.1v-2.2c-2.8-.3-5.3-1.1-7.5-2.4-.7-.4-1.1-1.1-1.1-1.9 0-1.4.7-2.2 2.2-2.2.3 0 .7.1 1 .3 2 1 3.7 1.6 5.3 1.8v-11.3l-4.2-2.4c-2.9-1.6-4.4-4.1-4.4-7.4 0-2.2.7-4.1 2.1-5.6 1.7-1.9 3.8-2.9 6.4-2.9v-2.1c0-1.4.7-2.1 2.1-2.1s2.1.7 2.1 2.1v2.3c2.7.3 5.2 1.2 7.5 2.5.7.4 1 1 1 1.8 0 .6-.2 1.1-.6 1.5-.4.4-.9.6-1.5.6-.4 0-.7-.1-1.1-.3-1.7-1-3.4-1.6-5.3-1.8v11.4l4.2 2.3c2.9 1.6 4.4 4.1 4.4 7.5 0 2.1-.7 4-2.1 5.6-1.6 1.8-3.7 2.8-6.3 2.8zm-4.3-20.7v-9.1c-1.2 0-2.2.4-3 1.2-.8.8-1.2 1.8-1.2 3 0 1.7.7 2.9 2.1 3.7l2.1 1.2zm4.3 16.4c1.2 0 2.2-.4 3.1-1.2.8-.8 1.3-1.8 1.3-3 0-1.7-.7-2.9-2.1-3.6l-2.2-1.2-.1 9zm47.6-12.7v12.8c0 2.4-.8 4.4-2.5 6.1-1.6 1.6-3.7 2.5-6.1 2.5H72.1c-1.4 0-2.1-.7-2.1-2.1V86.2c0-1.4.7-2.1 2.1-2.1s2.1.7 2.1 2.1v10.7h8.5c3.3 0 5.8 1.4 7.4 4.2.8 1.3 1.2 2.7 1.2 4.3zm-8.5-4.3h-8.5v21.3h8.5c1.2 0 2.2-.4 3-1.2.8-.8 1.2-1.8 1.2-3v-12.8c0-1.2-.4-2.2-1.2-3-.8-.9-1.8-1.3-3-1.3zm25.5 25.6c-2.4 0-4.4-.8-6.1-2.5-1.6-1.6-2.5-3.7-2.5-6.1 0-1.5.4-3 1.1-4.3 1.6-2.8 4.1-4.2 7.4-4.2h8.5v-4.3c0-1.2-.4-2.2-1.2-3-.8-.8-1.8-1.2-3-1.2H104c-1.4 0-2.1-.7-2.1-2.1 0-1.4.7-2.1 2.1-2.1h8.5c2.4 0 4.4.8 6.1 2.5 1.6 1.6 2.5 3.7 2.5 6.1v19.2c0 1.4-.7 2.1-2.1 2.1h-10.7zm8.6-12.8h-8.5c-1.2 0-2.2.4-3 1.2-.8.8-1.2 1.8-1.2 3s.4 2.2 1.3 3c.8.8 1.8 1.3 3 1.3h8.5v-8.5zm29.8 5.3c0-1.4-.6-2.3-1.8-2.9L134 111c-2.9-1.4-4.3-3.6-4.3-6.7 0-2.5 1-4.3 3-5.7 1.7-1.2 3.9-1.7 6.5-1.7 3.2 0 6 .8 8.5 2.4.8.5 1.1 1.1 1.1 1.9 0 .6-.2 1.1-.6 1.5-.4.4-.9.6-1.5.6-.4 0-.7-.1-1-.3-2-1.2-4.2-1.8-6.5-1.8-3.5 0-5.3 1.1-5.3 3.2 0 1.3.6 2.3 1.7 2.8l11 5.3c2.8 1.4 4.3 3.6 4.3 6.7 0 2.6-1 4.5-3.1 5.8-1.7 1.1-4 1.6-6.7 1.6-4.1 0-7.5-.8-10.3-2.4-.8-.5-1.2-1.1-1.2-1.9 0-.6.2-1.1.6-1.5.4-.4.9-.6 1.5-.6.3 0 .5.1.8.2.7.3 1.7.7 3 1.2 1.9.5 3.8.8 5.6.8 3.8 0 5.6-1.1 5.6-3.2zm12.8-33c0-1.4.7-2.1 2.1-2.1 1.4 0 2.1.7 2.1 2.1v10.7h8.5c2.3 0 4.4.8 6 2.5 1.7 1.6 2.5 3.6 2.5 5.9v19.3c0 1.4-.7 2.1-2.1 2.1s-2.1-.7-2.1-2.1v-19.2c0-1.2-.4-2.2-1.2-3-.8-.8-1.8-1.2-3-1.2h-8.5v23.4c0 1.4-.7 2.1-2.1 2.1-1.4 0-2.1-.7-2.1-2.1V86.2z"/></svg>