<svg id="Layer_1" xmlns="http://www.w3.org/2000/svg" viewBox="0 0 216 216"><style>.st0{fill:#254d7c}.st1{fill:#fff}</style><circle class="st0" cx="108" cy="108" r="89.9"/><path class="st1" d="M35.7 115l12.8 4.8c1 .4 1.5 1.1 1.5 2.2 0 1.5-.8 2.3-2.3 2.3-.3 0-.6 0-.8-.1l-18.6-7c-1-.4-1.5-1.1-1.5-2.2s.5-1.8 1.5-2.2l18.6-7c.3-.1.5-.1.8-.1 1.5 0 2.3.8 2.3 2.3 0 1.1-.5 1.8-1.5 2.2L35.7 115zm46.8 16.2c-1.1 0-1.8-.6-2.3-1.7l-4.7-12.6-4.7 12.6c-.4 1.2-1.2 1.8-2.3 1.8-1.2 0-2-.7-2.4-2.2l-6.9-27.4c0-.2-.1-.4-.1-.7 0-1.5.8-2.2 2.3-2.2 1.2 0 2 .6 2.3 1.8L69 121l4.3-11.5c.4-1 1.1-1.5 2.2-1.5s1.8.5 2.2 1.5l4.3 11.6 5.2-20.6c.3-1.2 1.1-1.8 2.3-1.8.6 0 1.1.2 1.6.7.5.4.7 1 .7 1.6 0 .3 0 .5-.1.7l-6.9 27.6c-.3 1.2-1.1 1.9-2.3 1.9zm23.2-13.9v4.6c0 1.3.5 2.4 1.4 3.3s2 1.4 3.3 1.4H122c1.5 0 2.3.8 2.3 2.3s-.8 2.3-2.3 2.3h-11.6c-2.6 0-4.8-.9-6.6-2.7s-2.7-4-2.7-6.6v-11.6c0-3.2 1.1-5.9 3.4-8.2 2.3-2.3 5-3.4 8.2-3.4 3.3 0 6 1.1 8.2 3.4 2.2 2.2 3.4 5 3.4 8.2v7h-18.6zm6.9-13.9c-1.9 0-3.6.7-4.9 2-1.4 1.4-2 3-2 4.9v2.3h13.9v-2.3c0-1.9-.7-3.6-2-4.9-1.4-1.4-3-2-5-2zm44.1 4.6v13.9c0 2.6-.9 4.8-2.7 6.6s-4 2.7-6.6 2.7h-11.6c-1.5 0-2.3-.8-2.3-2.3V87.1c0-1.5.8-2.3 2.3-2.3s2.3.8 2.3 2.3v11.6h9.3c3.6 0 6.3 1.5 8.1 4.6.8 1.5 1.2 3 1.2 4.7zm-9.3-4.6h-9.3v23.2h9.3c1.3 0 2.4-.5 3.3-1.4.9-.9 1.4-2 1.4-3.3V108c0-1.3-.4-2.4-1.3-3.3-.9-.9-2-1.3-3.4-1.3zm32.9 11.6l-12.8-4.8c-1-.4-1.5-1.1-1.5-2.2 0-1.5.8-2.3 2.3-2.3.3 0 .5 0 .8.1l18.6 7c1 .4 1.5 1.1 1.5 2.2s-.5 1.8-1.5 2.2l-18.6 7c-.3.1-.5.1-.8.1-.6 0-1.2-.2-1.6-.7s-.7-1-.7-1.6c0-1.1.5-1.8 1.5-2.2l12.8-4.8z"/></svg>