<svg id="Layer_1" xmlns="http://www.w3.org/2000/svg" viewBox="0 0 216 216"><style>.st0{fill:#254d7c}.st1{fill:#fff}</style><circle class="st0" cx="108" cy="108" r="89.9"/><path class="st1" d="M56.6 115l12.8 4.8c1 .4 1.5 1.1 1.5 2.2 0 1.5-.8 2.3-2.3 2.3-.3 0-.6 0-.8-.1l-18.6-7c-1-.4-1.5-1.1-1.5-2.2s.5-1.8 1.5-2.2l18.6-7c.3-.1.5-.1.8-.1 1.5 0 2.3.8 2.3 2.3 0 1.1-.5 1.8-1.5 2.2L56.6 115zm35.2-30.2c3.2 0 5.9 1.1 8.2 3.4 2.3 2.3 3.4 5 3.4 8.2 0 2.2-.7 4.4-2.1 6.7l-14.6 23.5H101c1.5 0 2.3.8 2.3 2.3s-.8 2.3-2.3 2.3H82.5c-1.5 0-2.3-.8-2.3-2.3 0-.5.1-.9.4-1.3l17-27.3c.8-1.2 1.2-2.5 1.2-3.8 0-1.9-.7-3.6-2-4.9-1.4-1.4-3-2-4.9-2-2.6 0-5.1 1.9-7.3 5.8-.4.8-1.1 1.1-2 1.1-1.5 0-2.3-.8-2.3-2.3 0-.4.1-.7.2-.9 2.8-5.7 6.5-8.5 11.3-8.5zm20.8 23.2c0-1.7.4-3.2 1.2-4.7 1.8-3.1 4.4-4.6 8.1-4.6h9.3V87.1c0-1.5.8-2.3 2.3-2.3s2.3.8 2.3 2.3v41.8c0 1.5-.8 2.3-2.3 2.3h-11.6c-2.6 0-4.8-.9-6.6-2.7s-2.7-4-2.7-6.6V108zm9.3-4.6c-1.3 0-2.4.5-3.3 1.4-.9.9-1.4 2-1.4 3.3V122c0 1.3.5 2.4 1.4 3.3s2 1.4 3.3 1.4h9.3v-23.2h-9.3zm37.5 11.6l-12.8-4.8c-1-.4-1.5-1.1-1.5-2.2 0-1.5.8-2.3 2.3-2.3.3 0 .6 0 .8.1l18.6 7c1 .4 1.5 1.1 1.5 2.2s-.5 1.8-1.5 2.2l-18.6 7c-.3.1-.5.1-.8.1-.6 0-1.2-.2-1.6-.7s-.7-1-.7-1.6c0-1.1.5-1.8 1.5-2.2l12.8-4.8z"/></svg>