<svg xmlns="http://www.w3.org/2000/svg" xmlns:xlink="http://www.w3.org/1999/xlink" width="288" height="144" viewBox="0 0 288 144"><path fill="#0F3B63" d="M279.099 75.699s-56.483 56.448-131.813 30.087C70.713 78.984 8.901 114.201 8.901 114.201s61.992-54.387 135.315-29.709c74.34 25.02 134.883-8.793 134.883-8.793"/><path fill="#B6BBC3" d="M252.666 102.117s-48.238 48.244-105.522 22.188c-63.299-28.799-118.325-12.41-118.325-12.41s56.723-22.743 115.963-2.875c58.68 19.675 107.884-6.903 107.884-6.903"/><defs><path id="a" d="M27.846 15.147h230.463v80.595H27.846V15.147"/></defs><clipPath id="b"><use xlink:href="#a" overflow="visible"/></clipPath><path clip-path="url(#b)" fill="#0F3B63" d="M44.916 91.926H28.521l-.675 3.177h10.506a173.377 173.377 0 0 1 6.564-3.177m14.763-31.095h-6.345L46.92 91.023c1.06-.469 2.143-.936 3.239-1.394l5.443-25.622h5.66l-1.583-3.176m6.174-45.045H62.91l-5.661 26.649h2.943l5.661-26.649m52.353 0h-5.223L79.749 51.525l14.474 27.004c.992-.084 1.987-.157 2.99-.219L83.781 53.154l34.425-37.368"/><path clip-path="url(#b)" fill="#0F3B63" d="M50.159 89.63c-1.096.458-2.179.925-3.239 1.394l-.192.902h-1.812a172.583 172.583 0 0 0-6.563 3.177h10.644l1.162-5.473m47.054-11.319c-1.003.062-1.998.135-2.99.219l7.18 13.396H75.862l1.583 3.177 28.647-.161-8.879-16.631m77.99-13.241h-2.944c-1.779 8.335-3.707 15.85-11.906 21.681a30.348 30.348 0 0 1-2.692 1.685c1.774.445 3.549.86 5.303 1.243 8.183-5.988 9.934-13.726 11.745-22.287l.494-2.322m-30.366-34.695c-12.051 0-14.004 3.699-16.407 15.021l-2.628 12.375c-1.694 7.964-2.448 12.628 1.098 14.829-.648-2.62.059-6.425 1.17-11.652l2.628-12.375c2.403-11.322 4.356-15.021 16.407-15.021 3.78 0 6.913.147 8.926 1.312-.897-4.126-5.243-4.489-11.194-4.489m32.729-10.369c1.833 3.875 1.981 9.585.346 17.983l-.648 3.069h-18.861l-.012.108-.647 3.069h21.789l.647-3.069c2.158-11.079 1.212-17.48-2.614-21.16m-71.699 66.576c4.455 8.696 16.081 9.16 30.348 9.16h1.039c8.827-.001 17.244-.116 25.376-5.823l.333-.24a177.956 177.956 0 0 1-5.303-1.243c-7.293 4.038-14.817 4.129-22.673 4.13h-1.041c-12.279-.001-22.601-.344-28.079-5.984M252.198 65.07h-2.945c-1.786 8.335-3.706 15.85-11.905 21.681-8.132 5.698-16.548 5.813-25.366 5.814h-1.039c-12.281 0-22.604-.345-28.084-5.985 1.74 3.396 4.573 5.537 8.231 6.886 3.195.169 6.339.249 9.415.249 15.019 0 28.555-1.892 39.996-4.449 7.719-5.93 9.423-13.509 11.202-21.874l.495-2.322m-30.366-34.695c-12.06 0-14.004 3.699-16.407 15.021l-2.637 12.375c-1.688 7.964-2.441 12.628 1.105 14.829-.647-2.621.06-6.425 1.172-11.652l2.628-12.375c2.402-11.322 4.355-15.021 16.406-15.021 3.778 0 6.912.147 8.926 1.313-.897-4.127-5.249-4.49-11.193-4.49m32.73-10.368c.97 2.049 1.468 4.615 1.479 7.818v.227c-.01 2.803-.384 6.087-1.134 9.938l-.657 3.069h-18.853l-.012.108-.647 3.069h21.779l.657-3.069c.75-3.85 1.125-7.135 1.134-9.938v-.226c-.018-5.137-1.287-8.63-3.746-10.996"/><path clip-path="url(#b)" fill="#0F3B63" d="M240.501 89.266c-11.441 2.558-24.978 4.449-39.996 4.449-3.076 0-6.22-.08-9.415-.249 5.708 2.104 13.423 2.276 22.12 2.276h1.038c8.819-.001 17.235-.116 25.368-5.823.304-.216.598-.434.885-.653"/><path fill="#C61F49" d="M134.987 92.565h-1.041 1.041"/><defs><path id="c" d="M25.578 11.97h230.463v80.595H25.578V11.97"/></defs><clipPath id="d"><use xlink:href="#c" overflow="visible"/></clipPath><path clip-path="url(#d)" fill="#C61F49" d="M115.938 12.609H90.342L63.594 42.435h-6.345l5.661-26.649.675-3.177h-21.15L25.578 91.926h21.15l.192-.903 6.414-30.192h6.345l1.583 3.177 9.304 18.666 4.611 9.252h26.226l-7.18-13.397-14.474-27.004 33.234-35.739z"/><path clip-path="url(#d)" fill="#C61F49" d="M177.566 20.006c-3.361-7.105-12.39-8.036-26.483-8.036-23.274 0-38.142 3.816-43.722 30.042l-4.356 20.52c-1.382 6.493-1.673 11.583-1.051 15.574.573 3.681 1.924 6.428 3.913 8.476 5.479 5.64 15.801 5.983 28.08 5.983h1.041c7.855-.001 15.38-.092 22.673-4.13.9-.499 1.799-1.059 2.692-1.685 8.199-5.831 10.127-13.346 11.906-21.681l.182-.855.494-2.322h-21.788l-.486 2.322c-1.98 9.307-6.345 9.945-15.129 9.945-4.157 0-6.905-.487-8.632-1.56-3.546-2.201-2.792-6.865-1.098-14.829l2.628-12.375c2.403-11.322 4.356-15.021 16.407-15.021 5.951 0 10.297.363 11.194 4.488.188.866.225 1.897.092 3.126l-.648 3.069h21.789l.648-3.069c1.636-8.397 1.487-14.107-.346-17.982zm76.996.001C251.2 12.9 242.17 11.97 228.069 11.97c-23.266 0-38.143 3.816-43.713 30.042l-4.365 20.52c-2.651 12.479-1.279 19.779 2.867 24.048 5.479 5.641 15.803 5.985 28.084 5.985h1.039c8.818-.001 17.234-.116 25.366-5.814 8.199-5.831 10.119-13.346 11.905-21.681l.182-.855.495-2.322H228.14l-.494 2.322c-1.98 9.307-6.346 9.945-15.12 9.945-4.157 0-6.905-.488-8.633-1.56-3.547-2.201-2.794-6.865-1.105-14.829l2.637-12.375c2.403-11.322 4.348-15.021 16.407-15.021 5.944 0 10.296.363 11.193 4.49.188.866.226 1.896.093 3.125l-.657 3.069h21.79l.657-3.069c.75-3.851 1.124-7.135 1.134-9.938v-.227c-.013-3.202-.511-5.768-1.48-7.818z"/></svg>